<mxfile host="Electron" modified="2023-06-26T11:20:47.227Z" agent="Mozilla/5.0 (Windows NT 10.0; Win64; x64) AppleWebKit/537.36 (KHTML, like Gecko) draw.io/21.5.0 Chrome/112.0.5615.204 Electron/24.5.1 Safari/537.36" etag="xS_SapdU3Cewnb_qSjwO" version="21.5.0" type="device">
  <diagram name="Page-1" id="03018318-947c-dd8e-b7a3-06fadd420f32">
    <mxGraphModel dx="1300" dy="1757" grid="1" gridSize="10" guides="1" tooltips="1" connect="1" arrows="1" fold="1" page="1" pageScale="1" pageWidth="1100" pageHeight="850" background="none" math="0" shadow="0">
      <root>
        <mxCell id="0" />
        <mxCell id="1" parent="0" />
        <mxCell id="677b7b8949515195-2" value="&lt;h1 style=&quot;font-family: Arial, sans-serif;&quot;&gt;&lt;a style=&quot;text-decoration-line: none;&quot; href=&quot;http://127.0.0.1:5500/index.html&quot;&gt;&lt;font color=&quot;#33001a&quot; style=&quot;font-size: 48px;&quot;&gt;Musik-Event-Kalender&lt;/font&gt;&lt;/a&gt;&lt;/h1&gt;" style="whiteSpace=wrap;html=1;rounded=0;shadow=0;labelBackgroundColor=none;strokeWidth=1;fontFamily=Verdana;fontSize=28;align=center;comic=1;fillColor=#f5f5f5;gradientColor=#b3b3b3;strokeColor=#666666;" parent="1" vertex="1">
          <mxGeometry x="30" y="10" width="1040" height="50" as="geometry" />
        </mxCell>
        <mxCell id="677b7b8949515195-9" value="" style="line;strokeWidth=1;html=1;rounded=0;shadow=0;labelBackgroundColor=none;fillColor=none;fontFamily=Verdana;fontSize=14;fontColor=#000000;align=center;comic=1;" parent="1" vertex="1">
          <mxGeometry x="30" y="140" width="1040" height="10" as="geometry" />
        </mxCell>
        <mxCell id="677b7b8949515195-10" value="" style="whiteSpace=wrap;html=1;rounded=0;shadow=0;labelBackgroundColor=none;strokeWidth=1;fillColor=#a20025;fontFamily=Verdana;fontSize=12;align=center;comic=1;fontColor=#ffffff;strokeColor=#6F0000;" parent="1" vertex="1">
          <mxGeometry x="30" y="90" width="1040" height="50" as="geometry" />
        </mxCell>
        <mxCell id="677b7b8949515195-11" value="Startseite" style="text;html=1;points=[];align=left;verticalAlign=top;spacingTop=-4;fontSize=14;fontFamily=Verdana;fontColor=#000000;" parent="1" vertex="1">
          <mxGeometry x="355" y="105" width="60" height="20" as="geometry" />
        </mxCell>
        <mxCell id="677b7b8949515195-12" value="Galerie&amp;nbsp;" style="text;html=1;points=[];align=left;verticalAlign=top;spacingTop=-4;fontSize=14;fontFamily=Verdana;fontColor=#000000;" parent="1" vertex="1">
          <mxGeometry x="520" y="105" width="60" height="20" as="geometry" />
        </mxCell>
        <mxCell id="677b7b8949515195-13" value="Galerie&lt;br&gt;" style="text;html=1;points=[];align=left;verticalAlign=top;spacingTop=-4;fontSize=14;fontFamily=Verdana;fontColor=#000000;" parent="1" vertex="1">
          <mxGeometry x="690" y="105" width="60" height="20" as="geometry" />
        </mxCell>
        <mxCell id="677b7b8949515195-26" value="" style="whiteSpace=wrap;html=1;rounded=0;shadow=0;labelBackgroundColor=none;strokeWidth=1;fillColor=#cdeb8b;fontFamily=Verdana;fontSize=12;align=center;comic=1;strokeColor=#36393d;" parent="1" vertex="1">
          <mxGeometry x="35" y="150" width="1040" height="630" as="geometry" />
        </mxCell>
        <mxCell id="REHDm1wyKtZERqcf-xgg-2" value="© 2023 Musik-Event-Kalender. Erstellt von Mohammad Shahir Bashiri." style="whiteSpace=wrap;html=1;rounded=0;shadow=0;labelBackgroundColor=none;strokeWidth=1;fontFamily=Verdana;fontSize=12;align=center;comic=1;fillColor=#030000;fontColor=#FFFFFF;" parent="1" vertex="1">
          <mxGeometry x="30" y="780" width="1050" height="50" as="geometry" />
        </mxCell>
        <mxCell id="REHDm1wyKtZERqcf-xgg-4" value="&lt;h1 style=&quot;font-family: Arial, sans-serif;&quot;&gt;Unsere Künstler&lt;div style=&quot;display: inline-block; margin: 10px; text-align: center; font-family: Arial, sans-serif; font-size: medium; font-style: normal; font-variant-ligatures: normal; font-variant-caps: normal; font-weight: 400; letter-spacing: normal; orphans: 2; text-indent: 0px; text-transform: none; widows: 2; word-spacing: 0px; -webkit-text-stroke-width: 0px; text-decoration-thickness: initial; text-decoration-style: initial; text-decoration-color: initial;&quot; class=&quot;gallery-item&quot;&gt;&lt;/div&gt;&lt;/h1&gt;&lt;p style=&quot;font-family: Arial, sans-serif; font-size: medium;&quot;&gt;&lt;/p&gt;" style="whiteSpace=wrap;html=1;rounded=0;shadow=0;labelBackgroundColor=none;strokeWidth=1;fillColor=none;fontFamily=Verdana;fontSize=12;align=center;comic=1;strokeColor=none;fontColor=#000000;" parent="1" vertex="1">
          <mxGeometry x="340" y="150" width="450" height="50" as="geometry" />
        </mxCell>
        <mxCell id="-aSSJh2xcYYNKjljCAwS-2" value="&lt;h3 style=&quot;margin-top: 10px; font-family: Arial, sans-serif; text-align: center;&quot;&gt;Coldplay&lt;/h3&gt;" style="text;html=1;points=[];align=left;verticalAlign=top;spacingTop=-4;fontSize=14;fontFamily=Verdana;fontColor=#000000;" parent="1" vertex="1">
          <mxGeometry x="235" y="190" width="70" height="30" as="geometry" />
        </mxCell>
        <mxCell id="-aSSJh2xcYYNKjljCAwS-6" value="" style="verticalLabelPosition=bottom;shadow=0;dashed=0;align=center;html=1;verticalAlign=top;strokeWidth=1;shape=mxgraph.mockup.containers.userMale;strokeColor=#10739e;strokeColor2=#008cff;fillColor=#b1ddf0;" parent="1" vertex="1">
          <mxGeometry x="475" y="310" width="160" height="160" as="geometry" />
        </mxCell>
        <mxCell id="-aSSJh2xcYYNKjljCAwS-8" value="" style="verticalLabelPosition=bottom;shadow=0;dashed=0;align=center;html=1;verticalAlign=top;strokeWidth=1;shape=mxgraph.mockup.containers.userMale;strokeColor=#10739e;strokeColor2=#008cff;fillColor=#b1ddf0;" parent="1" vertex="1">
          <mxGeometry x="192.5" y="310" width="155" height="150" as="geometry" />
        </mxCell>
        <mxCell id="UZ0F6RsAWKSZfsdA_oZP-1" value="" style="verticalLabelPosition=bottom;shadow=0;dashed=0;align=center;html=1;verticalAlign=top;strokeWidth=1;shape=mxgraph.mockup.containers.userMale;strokeColor=#10739e;strokeColor2=#008cff;fillColor=#b1ddf0;" parent="1" vertex="1">
          <mxGeometry x="760" y="600" width="150" height="150" as="geometry" />
        </mxCell>
        <mxCell id="UZ0F6RsAWKSZfsdA_oZP-2" value="" style="verticalLabelPosition=bottom;shadow=0;dashed=0;align=center;html=1;verticalAlign=top;strokeWidth=1;shape=mxgraph.mockup.containers.userMale;strokeColor=#10739e;strokeColor2=#008cff;fillColor=#b1ddf0;" parent="1" vertex="1">
          <mxGeometry x="475" y="590" width="155" height="150" as="geometry" />
        </mxCell>
        <mxCell id="UZ0F6RsAWKSZfsdA_oZP-3" value="" style="verticalLabelPosition=bottom;shadow=0;dashed=0;align=center;html=1;verticalAlign=top;strokeWidth=1;shape=mxgraph.mockup.containers.userMale;strokeColor=#10739e;strokeColor2=#008cff;fillColor=#b1ddf0;" parent="1" vertex="1">
          <mxGeometry x="190" y="590" width="150" height="150" as="geometry" />
        </mxCell>
        <mxCell id="UZ0F6RsAWKSZfsdA_oZP-4" value="&lt;h3 style=&quot;margin-top: 10px; font-family: Arial, sans-serif; text-align: center;&quot;&gt;Elton John&lt;/h3&gt;" style="text;html=1;points=[];align=left;verticalAlign=top;spacingTop=-4;fontSize=14;fontFamily=Verdana;fontColor=#000000;" parent="1" vertex="1">
          <mxGeometry x="515" y="190" width="70" height="30" as="geometry" />
        </mxCell>
        <mxCell id="UZ0F6RsAWKSZfsdA_oZP-5" value="&lt;h3 style=&quot;margin-top: 10px; font-family: Arial, sans-serif; text-align: center;&quot;&gt;50 Cent&lt;/h3&gt;" style="text;html=1;points=[];align=left;verticalAlign=top;spacingTop=-4;fontSize=14;fontFamily=Verdana;fontColor=#000000;" parent="1" vertex="1">
          <mxGeometry x="800" y="200" width="70" height="30" as="geometry" />
        </mxCell>
        <mxCell id="UZ0F6RsAWKSZfsdA_oZP-6" value="&lt;h3 style=&quot;margin-top: 10px; font-family: Arial, sans-serif; text-align: center;&quot;&gt;Lil Yachty&lt;/h3&gt;" style="text;html=1;points=[];align=left;verticalAlign=top;spacingTop=-4;fontSize=14;fontFamily=Verdana;fontColor=#000000;" parent="1" vertex="1">
          <mxGeometry x="220" y="470" width="70" height="30" as="geometry" />
        </mxCell>
        <mxCell id="UZ0F6RsAWKSZfsdA_oZP-7" value="&lt;h3 style=&quot;margin-top: 10px; font-family: Arial, sans-serif; text-align: center;&quot;&gt;Hozier&lt;/h3&gt;" style="text;html=1;points=[];align=left;verticalAlign=top;spacingTop=-4;fontSize=14;fontFamily=Verdana;fontColor=#000000;" parent="1" vertex="1">
          <mxGeometry x="520" y="470" width="70" height="30" as="geometry" />
        </mxCell>
        <mxCell id="UZ0F6RsAWKSZfsdA_oZP-8" value="&lt;h3 style=&quot;margin-top: 10px; font-family: Arial, sans-serif; text-align: center;&quot;&gt;Guns N&#39; Roses&lt;/h3&gt;" style="text;html=1;points=[];align=left;verticalAlign=top;spacingTop=-4;fontSize=14;fontFamily=Verdana;fontColor=#000000;" parent="1" vertex="1">
          <mxGeometry x="775" y="470" width="120" height="30" as="geometry" />
        </mxCell>
        <mxCell id="UZ0F6RsAWKSZfsdA_oZP-11" value="&lt;p style=&quot;margin-top: 10px; font-family: Arial, sans-serif; text-align: center;&quot;&gt;genre&lt;/p&gt;" style="text;html=1;points=[];align=left;verticalAlign=top;spacingTop=-4;fontSize=14;fontFamily=Verdana;fontColor=#000000;" parent="1" vertex="1">
          <mxGeometry x="815.5" y="230" width="39" height="30" as="geometry" />
        </mxCell>
        <mxCell id="UZ0F6RsAWKSZfsdA_oZP-12" value="&lt;p style=&quot;margin-top: 5px; font-family: Arial, sans-serif; font-size: medium; text-align: center;&quot;&gt;beschreibung&amp;nbsp;&lt;/p&gt;" style="text;html=1;points=[];align=left;verticalAlign=top;spacingTop=-4;fontSize=14;fontFamily=Verdana;fontColor=#000000;" parent="1" vertex="1">
          <mxGeometry x="790" y="260" width="100" height="50" as="geometry" />
        </mxCell>
        <mxCell id="UZ0F6RsAWKSZfsdA_oZP-13" value="&lt;p style=&quot;margin-top: 10px; font-family: Arial, sans-serif; text-align: center;&quot;&gt;genre&lt;/p&gt;" style="text;html=1;points=[];align=left;verticalAlign=top;spacingTop=-4;fontSize=14;fontFamily=Verdana;fontColor=#000000;" parent="1" vertex="1">
          <mxGeometry x="815.5" y="500" width="39" height="30" as="geometry" />
        </mxCell>
        <mxCell id="UZ0F6RsAWKSZfsdA_oZP-14" value="&lt;p style=&quot;margin-top: 5px; font-family: Arial, sans-serif; font-size: medium; text-align: center;&quot;&gt;beschreibung&amp;nbsp;&lt;/p&gt;" style="text;html=1;points=[];align=left;verticalAlign=top;spacingTop=-4;fontSize=14;fontFamily=Verdana;fontColor=#000000;" parent="1" vertex="1">
          <mxGeometry x="785" y="530" width="100" height="50" as="geometry" />
        </mxCell>
        <mxCell id="UZ0F6RsAWKSZfsdA_oZP-15" value="&lt;p style=&quot;margin-top: 10px; font-family: Arial, sans-serif; text-align: center;&quot;&gt;genre&lt;/p&gt;" style="text;html=1;points=[];align=left;verticalAlign=top;spacingTop=-4;fontSize=14;fontFamily=Verdana;fontColor=#000000;" parent="1" vertex="1">
          <mxGeometry x="533" y="230" width="39" height="30" as="geometry" />
        </mxCell>
        <mxCell id="UZ0F6RsAWKSZfsdA_oZP-16" value="&lt;p style=&quot;margin-top: 10px; font-family: Arial, sans-serif; text-align: center;&quot;&gt;genre&lt;/p&gt;" style="text;html=1;points=[];align=left;verticalAlign=top;spacingTop=-4;fontSize=14;fontFamily=Verdana;fontColor=#000000;" parent="1" vertex="1">
          <mxGeometry x="261" y="230" width="39" height="30" as="geometry" />
        </mxCell>
        <mxCell id="UZ0F6RsAWKSZfsdA_oZP-17" value="&lt;p style=&quot;margin-top: 5px; font-family: Arial, sans-serif; font-size: medium; text-align: center;&quot;&gt;beschreibung&amp;nbsp;&lt;/p&gt;" style="text;html=1;points=[];align=left;verticalAlign=top;spacingTop=-4;fontSize=14;fontFamily=Verdana;fontColor=#000000;" parent="1" vertex="1">
          <mxGeometry x="505" y="260" width="100" height="50" as="geometry" />
        </mxCell>
        <mxCell id="UZ0F6RsAWKSZfsdA_oZP-18" value="&lt;p style=&quot;margin-top: 5px; font-family: Arial, sans-serif; font-size: medium; text-align: center;&quot;&gt;beschreibung&amp;nbsp;&lt;/p&gt;" style="text;html=1;points=[];align=left;verticalAlign=top;spacingTop=-4;fontSize=14;fontFamily=Verdana;fontColor=#000000;" parent="1" vertex="1">
          <mxGeometry x="230.5" y="260" width="100" height="50" as="geometry" />
        </mxCell>
        <mxCell id="UZ0F6RsAWKSZfsdA_oZP-19" value="&lt;p style=&quot;margin-top: 5px; font-family: Arial, sans-serif; font-size: medium; text-align: center;&quot;&gt;beschreibung&amp;nbsp;&lt;/p&gt;" style="text;html=1;points=[];align=left;verticalAlign=top;spacingTop=-4;fontSize=14;fontFamily=Verdana;fontColor=#000000;" parent="1" vertex="1">
          <mxGeometry x="500" y="530" width="100" height="50" as="geometry" />
        </mxCell>
        <mxCell id="UZ0F6RsAWKSZfsdA_oZP-20" value="&lt;p style=&quot;margin-top: 5px; font-family: Arial, sans-serif; font-size: medium; text-align: center;&quot;&gt;beschreibung&amp;nbsp;&lt;/p&gt;" style="text;html=1;points=[];align=left;verticalAlign=top;spacingTop=-4;fontSize=14;fontFamily=Verdana;fontColor=#000000;" parent="1" vertex="1">
          <mxGeometry x="215" y="540" width="100" height="50" as="geometry" />
        </mxCell>
        <mxCell id="UZ0F6RsAWKSZfsdA_oZP-21" value="&lt;p style=&quot;margin-top: 10px; font-family: Arial, sans-serif; text-align: center;&quot;&gt;genre&lt;/p&gt;" style="text;html=1;points=[];align=left;verticalAlign=top;spacingTop=-4;fontSize=14;fontFamily=Verdana;fontColor=#000000;" parent="1" vertex="1">
          <mxGeometry x="245.5" y="510" width="39" height="30" as="geometry" />
        </mxCell>
        <mxCell id="UZ0F6RsAWKSZfsdA_oZP-22" value="&lt;p style=&quot;margin-top: 10px; font-family: Arial, sans-serif; text-align: center;&quot;&gt;genre&lt;/p&gt;" style="text;html=1;points=[];align=left;verticalAlign=top;spacingTop=-4;fontSize=14;fontFamily=Verdana;fontColor=#000000;" parent="1" vertex="1">
          <mxGeometry x="535.5" y="500" width="39" height="30" as="geometry" />
        </mxCell>
        <mxCell id="c4b4gmfHsCD7K99hwOSO-1" value="" style="verticalLabelPosition=bottom;shadow=0;dashed=0;align=center;html=1;verticalAlign=top;strokeWidth=1;shape=mxgraph.mockup.containers.userMale;strokeColor=#10739e;strokeColor2=#008cff;fillColor=#b1ddf0;" vertex="1" parent="1">
          <mxGeometry x="750" y="310" width="160" height="160" as="geometry" />
        </mxCell>
      </root>
    </mxGraphModel>
  </diagram>
</mxfile>
